<svg width="1446" height="367" viewBox="0 0 1446 367" fill="none" xmlns="http://www.w3.org/2000/svg">
<path d="M1209.56 15.625C1221.31 13.4894 1230.61 15.9282 1240.63 22.1875C1244.51 25.1482 1247.65 28.7156 1250 33V37L1252.06 35.6875C1258.37 31.9079 1263.59 29.253 1271 31C1277.36 33.7331 1282 37.3949 1286 43L1288.94 40.5C1292.56 37.9469 1295.37 37.192 1299.78 37.4414C1303.72 38.4325 1306.55 40.8173 1309 44C1309.69 46.2029 1309.69 46.2032 1310 48C1312.77 46.3686 1315.46 44.6851 1318.13 42.875C1322.99 39.7051 1327.34 39.3366 1333 40C1339.58 43.0868 1346.25 50.1886 1349 57C1349.27 60.6745 1349.31 63.2712 1347.88 66.6875L1347 69C1347.65 70.3424 1348.32 71.6744 1349 73C1349.85 79.4934 1349.85 79.4936 1347.87 83.0039C1344.75 86.9082 1342.02 89.0381 1337 90C1335.33 90.0218 1333.67 90.0253 1332 90L1332.14 91.9766C1332.39 98.0909 1331.98 101.298 1328 106C1327 107 1327 107 1325 107.133L1322.56 107.125L1320.13 107.133C1318 107 1318 107 1316 106L1316.18 108.414C1316.59 118.162 1316.59 118.163 1314 121.75C1311.06 123.955 1310.33 124.391 1306.88 124.562C1302.22 123.886 1302.22 123.886 1300 121C1296.88 113.348 1296.38 105.167 1296 97C1291.15 100.21 1291.15 100.21 1289.3 105.502C1289.33 106.82 1289.35 108.138 1289.38 109.496C1289.39 110.207 1289.39 110.919 1289.4 111.651C1289.43 113.915 1289.49 116.175 1289.56 118.438C1289.59 119.954 1289.6 121.47 1289.62 122.986C1289.71 129.074 1289.86 135.002 1291 141C1293.89 139.822 1295.11 138.859 1297.13 136.375C1300.74 133.387 1302.86 133.441 1307.4 133.434C1319.46 136.062 1329.42 151.69 1336.53 161.077C1338.06 163.083 1339.63 165.062 1341.2 167.039C1348.44 176.229 1354.8 185.708 1360.71 195.806C1362.09 198.158 1363.52 200.488 1364.94 202.82C1368.2 208.249 1371.15 213.817 1374.06 219.438L1375.59 222.346C1378.95 228.805 1382.05 235.346 1385 242C1385.41 242.902 1385.82 243.805 1386.23 244.734C1387.44 247.421 1388.63 250.116 1389.81 252.812L1391.05 255.545C1394.7 263.927 1394.71 263.927 1394 269C1392.15 271.559 1391.06 271.979 1388 273C1377.18 273.933 1365.46 272.228 1355.31 268.312C1349.16 266.047 1341.89 266.216 1335.5 267.504C1324.93 269.599 1313.54 267.533 1303 266L1302 269C1297.97 271.634 1293.66 271.751 1289 271C1286.75 268.938 1286.75 268.937 1285 267C1281.88 267.082 1280.15 267.908 1277.5 269.562C1272.09 271.784 1266.76 271.822 1261 271C1257.95 269.323 1256.55 267.103 1255 264C1254.87 261.362 1254.81 258.764 1254.81 256.125C1254.81 255.283 1254.81 254.441 1254.81 253.573C1254.89 244.078 1255.41 234.604 1255.94 225.125C1255.98 224.325 1256.03 223.525 1256.07 222.7C1256.2 220.386 1256.33 218.072 1256.47 215.758C1256.5 215.065 1256.54 214.371 1256.58 213.657C1256.82 209.71 1257.32 205.893 1258 202C1259.43 186.135 1259.11 170.04 1259.13 154.125C1259.13 152.683 1259.13 152.682 1259.13 151.211C1260.42 130.063 1260.42 130.062 1253.38 111C1249.71 109.455 1245.95 109.245 1242 109L1241.81 111.188C1240.7 115.036 1239.14 116.528 1236 119C1232.03 120.529 1228.26 121 1224 121L1224.22 123.543C1226.93 158.689 1226.93 158.69 1220 167C1215.87 171.277 1212.43 174.125 1206.38 174.5C1201.15 174.41 1198.48 172.979 1194.82 169.324C1187.04 159.39 1184.58 149.027 1185.16 136.722C1185.3 132.08 1184.39 129.865 1182 126C1181.67 122.66 1181.67 122.66 1181.75 119.062L1181.8 115.473C1181.99 112.245 1182.4 109.174 1183 106L1180.55 105.957C1171.96 105.574 1171.96 105.574 1167.75 103.062C1165.25 98.6795 1165.24 94.9365 1166 90C1166.94 87.9698 1167.93 85.963 1169 84C1169.75 81.0431 1169.75 81.0429 1169 78C1167.63 76.1022 1166.12 74.4271 1164.54 72.707C1160.24 67.926 1159.55 63.5353 1159.79 57.3281C1160.21 52.7339 1161.36 50.6932 1164.5 47.3125C1167.28 45.0728 1169.36 44.7513 1172.88 44.4375C1176.52 43.8751 1177.7 43.3476 1180.14 40.4961C1181.48 38.3844 1182.8 36.2547 1184.09 34.1094C1190.19 24.1876 1198.94 19.7241 1209.56 15.625ZM1309.33 165.492C1304.64 161.938 1301.87 161.204 1296 162C1294 165 1294 165 1293.74 166.903C1293.74 167.643 1293.73 168.36 1293.73 169.078C1293.72 169.922 1293.71 170.741 1293.7 171.561C1293.69 173.394 1293.68 175.227 1293.65 177.06C1293.61 180.04 1293.59 183.02 1293.56 186C1293.49 198.076 1293.25 209.826 1291.07 221.733C1289.57 229.819 1289.06 238.107 1290.56 246.25C1292 249 1292 249 1295.31 250.125L1299 251C1299.77 251.857 1300.51 252.689 1301.26 253.521C1304.19 256.175 1305.62 256.575 1309.52 256.592C1310.57 256.557 1310.57 256.557 1311.6 256.523C1313.84 256.509 1316.07 256.487 1318.31 256.432C1319.86 256.393 1321.4 256.366 1322.95 256.35C1324.46 256.338 1325.98 256.323 1327.49 256.305C1334.47 256.203 1339.8 256.336 1345 251C1345.44 247.438 1345.44 247.437 1345 244C1342.97 241.308 1342.97 241.308 1342.51 239.09C1341.77 234.969 1340.78 231.188 1339.19 227.312C1338.05 224.603 1336.98 221.925 1336.05 219.133C1331.1 204.068 1323.71 189.777 1316.29 175.794C1315.92 175.099 1315.55 174.425 1315.19 173.75C1313.58 170.655 1311.95 167.863 1309.33 165.492Z" fill="#8D1F1C"/>
<path d="M1237.81 29.8121C1242.5 34.4961 1244.46 39.7164 1246 45.9996C1247.74 46.8248 1247.74 46.8248 1250 46.9996C1252.6 45.6233 1252.6 45.6233 1255.13 43.6246C1259.55 40.3325 1262.06 38.5168 1267.78 38.5894C1273.32 39.6128 1277.38 44.014 1280.63 48.3746C1282.76 51.238 1282.76 51.238 1285.94 51.6871C1289.94 50.7897 1291.91 48.6274 1295 45.9996C1297.41 45.4996 1297.41 45.4996 1300 45.9996C1302.24 48.4058 1302.24 48.4058 1304.31 51.4996C1305.36 53.031 1305.36 53.031 1306.43 54.5933C1306.95 55.3874 1307.47 56.1814 1308 56.9996C1313.24 56.1176 1316.61 53.9532 1320.73 50.5894C1321.31 50.1266 1321.9 49.6639 1322.5 49.1871C1323.29 48.5277 1323.29 48.5277 1324.09 47.855C1327.07 46.5176 1328.92 47.0668 1332 47.9996C1334.56 50.1089 1334.56 50.1089 1336.88 52.7496C1337.66 53.6107 1338.44 54.4718 1339.24 55.3589C1341.2 58.2936 1341.56 59.5562 1341 62.9996C1340.34 63.9896 1339.68 64.9796 1339 65.9996C1338.67 69.0415 1338.67 69.0415 1339 71.9996C1339.66 72.6596 1340.32 73.3196 1341 73.9996C1341.38 76.4371 1341.38 76.4371 1341 78.9996C1337.42 82.3625 1333.95 82.7039 1329.24 83.3746C1326.64 83.8381 1326.64 83.8381 1325 86.9996C1324.54 90.1976 1324.54 90.1976 1324.38 93.6871C1324.3 94.8666 1324.23 96.046 1324.15 97.2613C1324.08 98.6167 1324.08 98.6167 1324 99.9996C1323.34 99.9996 1322.68 99.9996 1322 99.9996C1321.42 99.1952 1320.85 98.3908 1320.25 97.5621C1318.19 94.7543 1318.19 94.7543 1314.88 94.0621C1313.93 94.0414 1312.98 94.0208 1312 93.9996C1309.6 96.3964 1309.72 97.0698 1309.59 100.351C1309.53 101.627 1309.53 101.627 1309.47 102.929C1309.44 103.819 1309.41 104.708 1309.38 105.625C1309.32 106.97 1309.32 106.97 1309.26 108.343C1309.16 110.562 1309.08 112.78 1309 115C1308.01 115 1307.02 115 1306 115C1304.58 108.316 1303.53 101.674 1302.76 94.8824C1301.86 91.4835 1300.76 90.1338 1298 87.9996C1295.06 87.6103 1295.06 87.6103 1292 88.9996C1290.79 90.1449 1289.63 91.3374 1288.5 92.5621C1286.09 95.1471 1285.36 95.9147 1281.81 96.7496C1278.03 95.74 1277.14 94.2414 1275 90.9996C1274.17 87.6675 1274.17 87.6675 1273.75 84.1871C1273.6 83.0256 1273.45 81.8642 1273.3 80.6675C1273.2 79.7871 1273.1 78.9067 1273 77.9996C1268.49 78.8675 1266.5 79.3595 1263.63 83.0621C1263.09 84.0314 1262.55 85.0008 1262 85.9996C1260.43 87.5687 1258.86 87.3198 1256.69 87.4371C1254.22 87.4253 1254.22 87.4253 1252 86.9996C1249.69 84.1246 1249.69 84.1246 1248 80.9996C1245.72 79.4476 1244.48 78.9711 1241.71 79.1363C1240.94 79.318 1240.17 79.4998 1239.38 79.6871C1238.21 79.9404 1238.21 79.9404 1237.02 80.1988C1234.64 80.9189 1234.64 80.9189 1233 83.9996C1232.28 90.0513 1233.28 95.1997 1235 101C1235.78 107.862 1235.78 107.862 1233.86 110.668C1231.29 112.507 1229.05 112.672 1225.94 113.062C1221.46 113.456 1221.46 113.456 1218 116C1216.76 122.702 1217 129.274 1217.73 136.007C1219.48 155.143 1219.48 155.143 1214 162C1211.53 164.812 1209.38 166.862 1205.5 167.25C1200.4 164.7 1197.23 160.229 1195.13 155C1193.27 148.639 1192.28 138.865 1195.01 132.722C1195.34 132.154 1195.66 131.585 1196 131C1196.17 128.332 1196.17 128.332 1196 126C1194.02 125.67 1192.04 125.34 1190 125C1189.97 122.854 1189.95 120.708 1189.94 118.562C1189.93 117.367 1189.91 116.172 1189.9 114.941C1190 112 1190 112 1191 111C1191.4 106.836 1191.44 104.677 1189.13 101.125C1185.8 97.7966 1183.48 97.7802 1178.88 97.4371C1177.23 97.3114 1177.23 97.3114 1175.56 97.1832C1174.71 97.1226 1173.87 97.062 1173 96.9996C1174.77 89.4046 1174.77 89.4046 1176.13 86.9996C1177.56 83.7213 1177.55 80.4728 1177 76.9996C1175.44 74.175 1173.72 71.8339 1171.62 69.3902C1168.3 65.2594 1167.46 62.3171 1167.53 57.0152C1168.13 54.4371 1168.84 53.5285 1171 51.9996C1173.31 51.6636 1173.31 51.6636 1175.88 51.6246C1179.44 51.3402 1180.75 51.1747 1183.75 49.0621C1185.66 46.465 1187.26 43.9038 1188.88 41.1246C1193.32 33.4905 1199.16 27.3053 1207.73 24.4175C1218.89 22.3645 1228.32 23.6972 1237.81 29.8121Z" fill="#BE4441"/>
<path d="M65.2508 43.8124C66.8673 43.853 66.8673 43.853 68.5165 43.8944C69.3363 43.9292 70.1562 43.964 71.0008 43.9999C70.7611 45.2587 70.7611 45.2587 70.5165 46.5429C69.1207 55.9006 69.0092 65.3082 73.0008 73.9999C73.2677 74.638 73.5345 75.2761 73.8094 75.9335C77.6769 84.4764 83.9012 91.9472 90.0008 98.9999C94.2219 96.278 94.2219 96.278 98.0008 92.9999C98.3142 90.5363 98.3142 90.5363 98.3758 87.7499C98.8512 81.4801 100.85 78.3466 105.063 73.7499C108.119 71.9293 109.61 71.742 113.063 71.3749C118.924 70.5052 121.986 67.8783 126.301 63.962C140.25 51.5482 158.762 47.9922 176.872 47.5389C180.7 48.1029 182.337 49.2286 185.001 51.9999C185.934 58.2186 184.638 62.8759 181.001 67.9999C178.844 70.2578 176.623 72.295 174.001 73.9999C173.341 73.9999 172.681 73.9999 172.001 73.9999C172.166 75.2374 172.331 76.4749 172.501 77.7499C174.394 95.692 174.394 95.692 169.001 103C166.324 105.818 164.89 106.849 161.063 107.5C155.584 106.605 152.322 103.652 148.938 99.4374C145.518 94.6632 143.246 89.4034 141.001 83.9999C135.969 84.9201 135.969 84.9201 132.001 87.9999C131.525 89.257 131.092 90.5304 130.688 91.8124C129.075 96.5732 126.264 99.4007 122.001 102C121.026 102.258 120.052 102.516 119.048 102.781C114.992 104.403 113.829 106.434 111.563 110.125C110.863 111.221 110.163 112.316 109.442 113.445C107.717 117.701 107.613 120.704 109.001 125C110.576 128.302 112.499 131.317 114.501 134.375C115.073 135.276 115.646 136.176 116.235 137.104C120.187 143.291 124.242 149.41 128.283 155.539C177.049 229.597 177.049 229.597 177.376 255.125C177.404 256.138 177.433 257.151 177.462 258.195C177.001 261 177.001 261 175.462 263.336C172.128 265.59 169.137 265.508 165.251 265.5C159.677 265.644 155.658 266.223 150.868 269.129C147.19 270.845 142.915 270.905 139.001 270C135.483 267.112 134.404 264.935 133.622 260.492C133.423 259.422 133.224 258.352 133.018 257.25C132.827 256.136 132.636 255.022 132.438 253.875C131.041 246.074 129.459 238.539 127.001 231C126.76 230.232 126.52 229.465 126.272 228.674C119.324 206.63 106.744 173.693 85.0008 162C84.7753 162.904 84.7753 162.904 84.5453 163.826C81.9705 174.08 79.3859 184.271 75.8758 194.25C73.7532 200.349 72.0771 206.428 70.7508 212.75C70.5999 213.469 70.4489 214.189 70.2933 214.931C67.8136 227.405 66.6625 239.691 66.3758 252.375C66.3375 253.805 66.2985 255.234 66.2587 256.664C66.1643 260.109 66.0797 263.554 66.0008 267C59.2745 268.047 52.7338 268.255 45.9383 268.312C44.7801 268.341 43.6219 268.37 42.4286 268.4C35.9648 268.449 31.8949 268.395 27.0008 264C26.4233 263.546 25.8458 263.092 25.2508 262.625C20.5989 256.577 21.3366 248.155 22.0008 241C26.1191 220.869 36.7827 201.494 46.9564 183.849C48.9094 180.392 50.6289 176.823 52.3719 173.258C54.1039 169.794 55.9085 166.375 57.7262 162.955C62.5589 153.873 62.5589 153.873 67.1883 144.687C67.5738 143.908 67.9592 143.128 68.3563 142.324C69.2368 139.149 68.8848 137.17 68.0008 134C66.301 130.977 66.301 130.977 64.0633 128C63.6644 127.442 63.2654 126.885 62.8544 126.31C61.5799 124.533 60.2913 122.766 59.0008 121C52.3756 111.85 45.821 102.69 40.0008 92.9999C39.648 92.4171 39.2951 91.8343 38.9315 91.2338C34.2021 83.2493 30.8864 75.4306 33.0008 65.9999C35.8299 61.8096 38.3277 59.9241 43.0008 57.9999C44.1765 57.7936 45.3521 57.5874 46.5633 57.3749C51.0267 55.5896 51.8377 53.4401 53.7626 49.1913C56.605 44.1611 59.7013 43.6314 65.2508 43.8124Z" fill="#8D1D1A"/>
<path d="M302.749 97.3745C306.135 101.325 307.186 105.191 307.929 110.274C308.083 111.302 308.236 112.331 308.394 113.39C308.553 114.492 308.711 115.594 308.874 116.73C309.129 118.448 309.129 118.448 309.389 120.201C309.932 123.862 310.466 127.525 310.999 131.187C311.534 134.831 312.07 138.475 312.609 142.119C312.944 144.384 313.276 146.649 313.604 148.914C314.547 155.321 315.655 161.664 316.999 167.999C323.955 160.55 330.667 152.994 336.999 144.999C337.421 144.472 337.843 143.944 338.278 143.4C347.651 132.43 347.651 132.43 352.499 119.249C351.964 115.77 350.855 113.938 348.999 110.999C348.906 108.351 348.906 108.351 348.999 105.999C351.497 104.723 353.997 103.454 356.499 102.187C357.195 101.831 357.892 101.474 358.609 101.107C372.248 94.2243 372.248 94.2243 379.999 94.9995C382.937 97.937 383.012 101.453 383.691 105.41C383.916 106.672 383.916 106.672 384.146 107.96C384.463 109.745 384.776 111.532 385.086 113.319C385.556 116.028 386.037 118.736 386.521 121.443C386.828 123.182 387.135 124.921 387.441 126.66C387.582 127.46 387.724 128.26 387.87 129.085C388.669 133.709 389.295 138.315 389.743 142.987C390.082 145.648 390.777 148.197 391.469 150.784C392.594 155.483 393.211 160.288 393.937 165.062C395.235 173.418 396.682 181.695 398.413 189.972C399.052 193.271 399.436 196.537 399.736 199.881C400.073 202.596 400.802 205.185 401.482 207.831C402.328 211.378 402.861 214.962 403.402 218.566C403.587 219.761 403.587 219.761 403.775 220.98C404.166 223.507 404.552 226.034 404.937 228.562C406.548 239.133 408.231 249.646 410.451 260.109C410.999 262.999 410.999 262.999 410.999 265.999C400.109 265.999 389.219 265.999 377.999 265.999C377.381 262.143 376.762 258.286 376.124 254.312C375.923 253.058 375.721 251.805 375.514 250.513C374.618 244.93 373.748 239.346 372.937 233.749C372.139 228.444 370.913 223.286 369.656 218.074C368.897 214.519 368.519 211.038 368.308 207.414C368.05 204.866 368.05 204.866 367.085 201.976C365.506 196.682 364.937 191.209 364.187 185.749C362.624 174.716 360.742 163.777 358.574 152.846C357.531 147.465 356.717 142.483 356.999 136.999C356.339 136.999 355.679 136.999 354.999 136.999C354.78 137.678 354.561 138.356 354.335 139.054C352.604 142.87 350.203 145.843 347.624 149.124C338.436 161.112 329.508 173.855 323.999 187.999C323.649 188.761 323.298 189.522 322.937 190.307C319.319 200.693 324.603 216.318 326.438 226.841C327.003 230.085 327.561 233.33 328.117 236.576C328.473 238.645 328.83 240.715 329.187 242.785C329.354 243.751 329.52 244.718 329.692 245.714C329.849 246.613 330.006 247.511 330.167 248.437C330.304 249.224 330.441 250.011 330.582 250.822C330.859 252.269 331.181 253.709 331.545 255.137C332.095 257.39 332.096 259.434 332.062 261.749C332.053 262.549 332.044 263.348 332.034 264.171C332.023 264.775 332.011 265.378 331.999 265.999C327.603 266.024 323.206 266.042 318.81 266.054C317.313 266.059 315.816 266.066 314.319 266.075C312.172 266.087 310.025 266.093 307.878 266.097C306.585 266.102 305.291 266.108 303.959 266.113C300.999 265.999 300.999 265.999 299.999 264.999C299.601 263.082 299.259 261.153 298.939 259.221C298.732 257.981 298.525 256.741 298.311 255.463C298.202 254.795 298.092 254.126 297.979 253.437C297.633 251.331 297.282 249.225 296.929 247.12C296.052 241.873 295.184 236.625 294.315 231.377C293.468 226.264 292.618 221.151 291.761 216.039C291.642 215.326 291.523 214.614 291.4 213.88C289.898 204.942 288.267 196.052 286.32 187.199C284.542 179.073 283.31 170.876 282.067 162.653C281.765 160.668 281.456 158.683 281.148 156.699C280.974 155.552 280.801 154.406 280.622 153.225C280.003 150.021 279.102 147.067 277.999 143.999C267.512 159.317 260.315 175.23 254.999 192.999C254.798 193.668 254.597 194.336 254.39 195.024C249.911 210.147 242.267 238.889 248.992 254.269C249.324 254.84 249.657 255.411 249.999 255.999C250.316 259.105 250.493 261.129 248.937 263.874C245.855 265.664 243.505 265.35 239.999 264.999C238.865 264.504 237.731 264.009 236.562 263.499C232.151 261.642 229.748 261.54 224.999 261.999C224.174 262.494 223.349 262.989 222.499 263.499C218.756 265.746 216.33 265.488 211.999 264.999C209.999 263.499 209.999 263.499 208.999 260.999C208.341 255.982 208.494 253.201 211.374 248.999C212.241 248.009 213.107 247.019 213.999 245.999C214.659 245.999 215.319 245.999 215.999 245.999C215.976 245.068 215.953 244.136 215.929 243.175C215.318 200.003 238.122 167.9 265.917 137.3C268.989 133.906 271.997 130.456 274.999 126.999C274.035 125.026 273.057 123.096 271.929 121.21C268.862 115.871 267.893 111.105 268.999 104.999C271.344 99.0558 275.413 94.9936 280.999 91.9995C288.812 89.1948 296.771 92.2117 302.749 97.3745Z" fill="#8D1E1B"/>
<path d="M526.126 93.75C527.677 93.7113 527.677 93.7113 529.259 93.6719C532.001 94 532.001 94 533.884 95.2734C535.591 97.9116 534.843 100.276 534.384 103.254C533.791 107.509 533.672 111.793 533.477 116.082C532.963 119.232 532.118 120.662 530.001 123C526.27 122.627 523.444 122.241 520.126 120.438C515.959 118.521 512.462 118.229 508.001 119C503.796 120.803 499.96 123.114 496.063 125.5C494.014 126.722 491.964 127.941 489.911 129.156C489.015 129.701 488.119 130.246 487.196 130.807C485.001 132 485.001 132 483.001 132C483.001 143.88 483.001 155.76 483.001 168C492.895 163.079 492.895 163.079 502.775 158.127C504.028 157.511 505.282 156.895 506.536 156.281C507.17 155.957 507.803 155.633 508.456 155.3C512.794 153.198 516.199 152.498 521.001 153C521.661 153.66 522.321 154.32 523.001 155C522.938 158.375 522.938 158.375 522.001 162C521.217 162.598 520.433 163.196 519.626 163.812C516.171 166.691 516.021 169.225 515.36 173.562C513.117 177.585 509.151 178.381 505.001 180C503.268 180.776 501.54 181.562 499.817 182.359C498.953 182.753 498.089 183.146 497.198 183.551C495.413 184.363 493.629 185.178 491.847 185.996C490.991 186.384 490.136 186.772 489.255 187.172C488.1 187.699 488.1 187.699 486.921 188.237C485.001 189 485.001 189 483.001 189C483.043 195.46 483.115 201.919 483.208 208.379C483.237 210.576 483.258 212.772 483.272 214.969C483.293 218.13 483.34 221.289 483.391 224.449C483.393 225.43 483.394 226.41 483.395 227.42C483.488 231.736 483.576 234.304 485.861 238.048C491.521 243.211 496.773 243.523 504.134 243.352C513.585 242.492 521.999 239.912 530.075 234.984C533.161 233.407 535.636 233.472 539.001 234C541.376 235.188 541.376 235.188 543.001 237C543.083 237.804 543.166 238.609 543.251 239.438C543.706 242.083 543.706 242.083 545.657 242.965C546.348 243.265 547.039 243.566 547.751 243.875C552.306 245.923 554.979 248.388 557.001 253C557.643 256.039 557.47 257.817 557.001 261C554.799 264.018 553.603 264.9 549.885 265.519C548.658 265.528 547.431 265.537 546.166 265.546C545.486 265.556 544.805 265.567 544.104 265.577C541.848 265.607 539.593 265.608 537.337 265.609C535.746 265.624 534.155 265.641 532.563 265.659C528.355 265.703 524.147 265.723 519.938 265.738C515.757 265.757 511.576 265.8 507.395 265.84C500.154 265.907 492.913 265.941 485.671 265.962C480.795 265.98 475.923 266.051 471.049 266.154C469.852 266.173 468.656 266.192 467.423 266.211C465.251 266.246 463.079 266.296 460.907 266.364C454.724 266.439 450.991 265.771 446.001 262C443.841 255.521 444.788 251.326 447.492 245.265C451.624 234.674 450.638 223.253 450.524 212.078C450.517 209.682 450.513 207.285 450.51 204.888C450.499 199.896 450.473 194.904 450.433 189.911C450.382 183.502 450.357 177.093 450.342 170.683C450.327 164.565 450.302 158.446 450.274 152.328C450.269 151.159 450.264 149.989 450.259 148.785C450.243 145.496 450.22 142.208 450.194 138.919C450.189 137.938 450.185 136.958 450.181 135.947C450.172 135.056 450.164 134.165 450.155 133.246C450.149 132.47 450.144 131.694 450.138 130.894C450.115 128.911 450.115 128.911 449.001 127C448.813 124 448.813 124 449.001 121C451.709 118.292 453.94 118.235 457.688 117.438C467.96 115.072 477.538 111.026 487.283 107.081C491.118 105.555 494.995 104.154 498.876 102.75C503.899 100.917 508.571 98.8348 513.106 95.9805C517.205 93.8594 521.587 93.8183 526.126 93.75Z" fill="#8D1E1B"/>
<path d="M655 86.688C656.967 86.7403 656.967 86.7403 658.973 86.7935C664.659 87.0616 670.333 87.4653 676 88.0005C676.629 91.4348 676.993 94.4274 676.938 97.938C676.877 101.915 677.861 105.183 679 109.001C679.296 111.166 679.502 113.33 679.707 115.505C679.991 117.926 680.412 120.263 680.906 122.649C683.153 133.64 685.398 144.655 687.063 155.751C687.214 156.738 687.364 157.725 687.52 158.743C687.782 160.52 688.04 162.298 688.275 164.08C689.493 175.433 689.493 175.433 695.637 184.669C698.731 187.691 698.961 191.447 699.25 195.563C699 199.001 699 199.001 698 201.376C695.255 208.581 697.51 217.103 698.875 224.438C699.136 225.897 699.136 225.897 699.403 227.385C700.684 234.493 702.078 241.577 703.552 248.648C704.216 252.136 704.06 255.455 704 259.001C695.152 263.827 685.188 266.967 675 265.001C672.266 263.387 670.798 262.505 669 260.001C668.23 256.403 668.443 252.918 668.625 249.258C668.648 248.217 668.671 247.175 668.694 246.102C668.792 241.653 668.961 237.208 669.123 232.762C669.232 229.511 669.304 226.26 669.375 223.008C669.45 221.511 669.45 221.511 669.526 219.984C669.631 214.98 669.469 211.92 666.102 208.063C665.571 207.559 665.041 207.055 664.495 206.535C661.15 203.101 660.685 199.805 660.625 195.126C660.723 188.434 662.318 185.683 667 181.001C667.342 173.771 665.864 166.564 664.188 159.563C664.035 158.902 663.882 158.24 663.724 157.559C662.332 152.118 659.965 147.966 656 144.001C652.45 143.861 650.024 144.151 647.231 146.469C645.335 148.558 643.658 150.719 642 153.001C641.469 153.716 640.938 154.431 640.391 155.169C624.473 178.401 613.966 208.396 613.86 236.676C613.841 238.095 613.822 239.514 613.801 240.932C613.772 243.136 613.75 245.338 613.75 247.542C613.746 249.692 613.712 251.839 613.672 253.989C613.663 255.263 613.653 256.537 613.644 257.849C613 261.001 613 261.001 610.64 262.897C605.666 264.977 600.778 265.157 595.438 265.188C594.343 265.202 593.249 265.216 592.121 265.231C587.714 264.906 584.981 263.875 581.688 260.938C577.56 253.753 580.707 243.771 582.188 236.063C582.415 234.87 582.643 233.677 582.878 232.449C589.635 197.911 606.061 173.025 629.809 147.372C631.725 145.299 633.591 143.197 635.438 141.063C638.533 137.516 641.66 133.997 644.813 130.501C645.534 129.689 645.534 129.689 646.269 128.86C647.472 127.535 648.732 126.263 650 125.001C650.66 125.001 651.32 125.001 652 125.001C650.159 118.532 648.278 112.334 645.25 106.313C642.947 101.42 641.381 96.3449 643 91.0005C646.772 86.9345 649.578 86.5215 655 86.688Z" fill="#8D1E1B"/>
<path d="M1089.06 74.1885C1095.53 69.3725 1102.94 70.0287 1110.44 72.501C1141.28 85.0129 1171.34 117.004 1184.27 147.15C1190.97 164.05 1188.29 179.513 1181.46 195.634C1177.3 204.455 1171.73 215.117 1164.2 221.54C1162.32 223.829 1162.9 225.814 1163.12 228.688C1163.27 234.857 1162.09 238.404 1158 243.001C1153.36 247.645 1149.67 249.148 1143.12 249.188L1140.01 249.231C1137 249.001 1137 249.001 1134.51 247.849C1130.92 246.637 1129.18 247.772 1125.75 249.251C1117.61 252.423 1109.66 253.298 1101 254.001L1101.62 257.481C1103.22 266.642 1104.61 275.694 1105 285.001L1105.16 288.267C1105.56 303.052 1101.2 316.085 1091.05 327.024C1075.6 341.913 1075.6 341.913 1066.88 342.563C1063 342.001 1063 342.001 1060 339.876C1058 337.001 1058 337.001 1057.25 334.126C1058.22 330.088 1060.13 328.725 1063.12 325.97C1070.25 318.507 1072.16 307.743 1072.12 297.739C1072.05 295.93 1071.97 294.121 1071.88 292.313C1071.82 291.324 1071.77 290.335 1071.72 289.315C1070.5 269.467 1065.85 250.381 1060.83 231.2C1058.88 223.708 1056.96 216.219 1055.44 208.626L1054.75 205.228C1049.48 176.359 1049.17 149.871 1066 125.001C1067.54 122.973 1069.12 120.985 1070.71 118.999C1079.28 108.29 1081.69 98.6546 1082.74 85.0439C1083.34 80.2717 1085.52 77.23 1089.06 74.1885ZM1106.27 119.664C1102.82 119.534 1100.13 119.092 1097.34 121.328C1089.61 130.95 1089.61 130.951 1089.68 167.724C1089.68 168.816 1089.68 169.877 1089.69 170.938C1089.7 186.844 1089.6 202.769 1092.49 218.475C1092.75 219.75 1092.75 219.75 1093 221C1093.41 223.113 1093.84 225.221 1094.29 227.324C1095.55 232.125 1096.67 235.208 1101 238C1109.3 239.427 1117.31 238.24 1125 235L1125.15 232.734L1125.38 229.75C1125.72 224.95 1126.53 221.956 1129.42 218.113C1133.89 213.564 1137.57 212.441 1143.88 212.312C1147.8 212.363 1147.8 212.363 1151 212L1152.34 210.301L1153 208L1153.85 205.617C1158.81 188.028 1156.45 169.714 1147.75 153.739C1147.34 153.02 1146.95 152.323 1146.56 151.625C1144.78 148.429 1142.97 145.299 1140.78 142.366C1132.4 132.111 1119.9 121.34 1106.27 119.664Z" fill="#8D1D1A"/>
<path d="M744.001 86C747.766 83.49 749.544 83.3853 754.001 84C755.688 85.9826 757.355 87.9832 759.001 90C762.586 90.9125 765.628 91.007 769.313 90.9375C772.001 91 772.001 91 774.001 93C774.273 94.8569 774.272 94.857 774.304 97.1387C774.329 98.421 774.329 98.4214 774.354 99.7295C774.363 100.657 774.371 101.584 774.38 102.539C774.397 103.494 774.414 104.449 774.432 105.433C774.485 108.497 774.525 111.561 774.563 114.625C774.608 117.668 774.654 120.71 774.706 123.753C774.738 125.647 774.765 127.542 774.787 129.437C774.868 134.703 775.248 139.786 776.001 145L782.153 139.629C783.122 138.775 784.088 137.913 785.001 137C789.578 136.346 792.441 136.107 796.505 138.434C830.903 165.188 853.546 212.821 870.001 252C870.368 252.858 870.735 253.716 871.112 254.6C872.35 257.943 872.458 260.472 872.001 264C866.438 268.304 860.713 267.617 854.001 267C846.297 265.773 838.652 264.067 831.165 261.879C826.532 260.592 822.567 260.478 818.001 262C815.384 262.127 812.806 262.189 810.188 262.188C809.406 262.189 808.623 262.19 807.817 262.191C800.429 262.133 793.127 261.473 785.791 260.624C778.25 259.811 769.923 258.965 763.438 263.562C758.923 266.32 755.215 266.943 750.001 266C747.126 264.688 747.126 264.687 745.001 263C744.47 262.607 743.939 262.215 743.392 261.811C741.282 259.063 741.626 256.775 741.627 253.347C741.623 252.667 741.619 251.987 741.615 251.287C741.606 249.005 741.617 246.723 741.629 244.44C741.626 242.806 741.623 241.171 741.618 239.537C741.609 235.093 741.618 230.648 741.631 226.204C741.642 221.554 741.639 216.903 741.637 212.252C741.636 204.437 741.647 196.622 741.665 188.808C741.686 179.779 741.69 170.75 741.684 161.722C741.678 153.035 741.683 144.348 741.694 135.661C741.699 131.966 741.7 128.271 741.698 124.576C741.696 120.219 741.704 115.863 741.72 111.506C741.724 109.909 741.725 108.312 741.723 106.716C741.719 104.531 741.728 102.346 741.74 100.161C741.742 98.9401 741.745 97.719 741.747 96.4609C742.024 92.6966 742.696 89.5413 744.001 86ZM782.688 161.312C775.936 162.571 775.66 167.392 775.712 173.409C775.734 174.252 775.756 175.069 775.777 175.887C775.805 178.564 775.836 181.241 775.884 183.918C776.069 193.428 777.036 203.396 775.02 212.75C774.121 216.34 773.741 219.62 773.727 223.322L773.75 225.312C773.677 231.654 774.056 236.009 778.625 240.688C784.688 245.289 784.688 245.289 801.932 245.322C804.135 245.316 806.338 245.313 808.542 245.336C809.997 245.352 811.451 245.363 812.906 245.365C813.614 245.365 814.301 245.364 814.988 245.363C818.849 245.372 818.849 245.372 822 245C823.918 243.682 823.918 243.682 825 242C825.373 238.236 825.099 235.355 824.082 231.711L822.812 228.375L821.426 224.691L820 221C815.535 209.006 810.372 197.448 804.619 186.018C803.974 184.742 803.33 183.465 802.688 182.188C800.319 177.328 797.949 172.544 795 168C791.368 164.222 788.001 161.723 782.688 161.312Z" fill="#8D1D1A"/>
<path d="M1012.84 83.5742C1015 84 1015 84.0003 1016.61 85.584C1018.5 88.8803 1018.35 91.2945 1018.32 95.0869C1018.32 95.8007 1018.32 96.5146 1018.32 97.25C1018.31 99.6425 1018.28 102.034 1018.25 104.427C1018.24 106.142 1018.23 107.856 1018.22 109.571C1018.19 114.228 1018.15 118.884 1018.1 123.541C1018.06 128.407 1018.03 133.274 1017.99 138.14C1017.93 147.355 1017.85 156.569 1017.77 165.784C1017.68 176.275 1017.6 186.766 1017.52 197.257C1017.37 218.838 1017.19 240.419 1017 262C1015.4 262.661 1013.8 263.316 1012.2 263.97C1011.3 264.335 1010.41 264.7 1009.49 265.077C1006.67 266.123 1004.29 266.49 1001.28 266.461L998.398 266.449L995.5 266.375L992.508 266.371C985.282 266.282 985.282 266.282 983 264C983.272 261.659 983.618 259.326 984 257C984.111 254.28 984.183 251.582 984.205 248.861C984.215 248.08 984.225 247.299 984.235 246.494C984.267 243.935 984.292 241.376 984.316 238.816C984.337 237.033 984.358 235.249 984.379 233.466C984.434 228.789 984.484 224.112 984.532 219.435C984.583 214.655 984.638 209.875 984.693 205.096C984.801 195.731 984.902 186.365 985 177C983.107 177.281 981.215 177.572 979.324 177.867C978.271 178.028 977.217 178.19 976.132 178.355C967.608 180.111 959.401 185.157 954 192C953.112 194.564 952.706 196.917 952.371 199.605C951.56 204.84 949.048 208.183 944.875 211.438C942 213 942 213 940 213L939.188 216.688C938.063 221.764 936.876 226.826 935.684 231.887C934.579 236.918 933.876 241.641 933.938 246.801L933.961 250.01L934 253.312C934.025 255.496 934.046 257.68 934.062 259.863C934.074 260.825 934.086 261.787 934.098 262.778C934 265 934 265 933 266C928.6 266.218 924.195 266.186 919.79 266.186C917.575 266.188 915.361 266.206 913.146 266.225C911.745 266.228 910.343 266.23 908.941 266.23C907.66 266.235 906.377 266.239 905.057 266.243C902 266 902 266 900 264C899.001 252.806 899.938 240.807 903 230C903.251 228.625 903.501 227.25 903.75 225.875C905.246 219.017 908.137 210.42 912.664 205.012C914.604 202.091 914.374 199.593 914.438 196.125C914.863 188.373 916.863 184.853 922.5 179.688C927.029 175.766 931.123 175.797 937 176L940.062 176.688C943.849 177.09 945.783 175.915 949 174L947.129 173.555C934.567 170.228 926.609 163.004 920 152C915.304 143.105 912.596 134.03 910.734 124.168C909.34 118.153 907.141 112.703 902.25 108.812C900 107 900 107 898.875 103.562C899 100 899 100 900.867 97.3008C905.323 94.0281 908.871 94.4062 914.25 94.625L916.988 94.668C921.095 94.7566 925.13 94.9825 929.203 95.5156C935.257 96.2472 941.341 96.1496 947.43 96.1309C949.496 96.1255 951.562 96.1303 953.629 96.1367C966.082 96.8616 966.082 96.8616 977 92.5L979 90L980 89C983.742 89.0417 987.473 89.1277 991.211 89.3027C995.346 89.3936 997.373 89.4229 1000.89 87.0508L1003 85C1005.74 84.0881 1007.66 83.7776 1010.5 83.6875L1012.84 83.5742ZM959.749 105.625C953.006 105.612 946.9 105.963 940.784 109.156C938.086 111.261 936.297 112.849 935.421 116.23C934.913 127.65 941.312 139.424 946.999 149C950.17 152.968 952.635 154.595 957.672 155.507C958.721 155.661 958.721 155.661 959.749 155.812C963.478 156.432 967.17 156.939 970.94 157.215C976.018 157.29 978.916 157.041 982.647 153.458C985.048 150.429 985.599 147.844 985.668 143.935C985.654 143.168 985.641 142.424 985.628 141.68C985.633 140.077 985.635 138.474 985.634 136.871C985.596 134.364 985.561 131.861 985.575 129.354C985.588 127.708 985.591 126.062 985.584 124.416C985.574 123.224 985.575 123.223 985.565 122.055C985.593 117.965 985.727 114.927 983.095 111.576C976.832 106.867 970.1 105.774 962.423 105.63L959.749 105.625Z" fill="#8D1E1B"/>
</svg>
